<svg width="198" height="56" viewBox="0 0 198 56" fill="none" xmlns="http://www.w3.org/2000/svg">
<g clip-path="url(#clip0_651_160)">
<path d="M12.8826 31.4168H22.8379L41.5607 9.77362L12.8826 31.4168Z" fill="#E60012"/>
<path d="M53.1935 26.386C51.8392 12.7941 40.4344 2.54352 26.6633 2.54352C11.9607 2.54352 0 14.4176 0 29.0241C0 35.3057 2.25243 41.389 6.34387 46.1697C6.7763 46.6747 7.53661 46.7313 8.04507 46.3113C8.55353 45.8771 8.61531 45.122 8.18763 44.6218C4.46684 40.2752 2.414 34.7441 2.414 29.0288C2.414 22.5963 4.93729 16.546 9.51818 12.0012C14.0991 7.4517 20.1863 4.9457 26.6633 4.9457C39.1894 4.9457 49.5677 14.2665 50.7937 26.6314C50.8602 27.2874 51.516 27.5564 51.996 28C52.6612 28.6135 53.26 28.2124 53.1935 26.3907" fill="#E60012"/>
<path d="M50.9648 30.4682C50.2045 29.0147 48.1801 26.5983 43.124 26.721C42.4588 26.7399 41.9218 27.4148 41.5321 27.9528C41.0617 28.6182 41.0522 29.1421 43.1858 29.1185C46.9256 29.0949 48.3179 30.6145 48.8216 31.5679C49.5772 33.0073 50.0524 35.5274 49.4442 37.335C45.9372 46.7502 36.7754 53.1025 26.668 53.1025C21.2555 53.1025 16.1329 51.3705 11.8609 48.0905C11.8609 48.0905 11.3049 47.6469 11.9322 46.8257L39.3035 26.0886H29.3529L10.4686 47.8781C10.4496 47.9065 9.44214 49.1713 10.3878 49.9877C15.0827 53.5933 20.7138 55.5 26.6728 55.5C37.7876 55.5 47.857 48.52 51.7251 38.1326C52.6042 35.5133 51.9484 32.3324 50.9743 30.4682" fill="#E60012"/>
<path d="M92.6538 24.0734H78.3741V22.1479C78.3741 21.4825 77.8276 20.9445 77.1624 20.9445H76.0076C75.3376 20.9445 74.7959 21.4825 74.7959 22.1479V24.0734H61.5284C60.8584 24.0734 60.3167 24.6114 60.3167 25.2769V26.4237C60.3167 27.0891 60.8584 27.6271 61.5284 27.6271H74.7959V30.3361H64.3986C63.0585 30.3361 61.9751 31.4121 61.9751 32.7383V42.2479C61.9751 43.574 63.0585 44.6548 64.3986 44.6548H69.7445C68.7324 45.8157 66.3279 48.015 61.0675 50.6484C61.0675 50.6484 59.8937 51.0732 60.6968 52.2908L61.4999 53.565C61.4999 53.565 61.9798 54.5183 63.1488 53.6122C63.1488 53.6122 69.6828 50.6956 74.6486 44.6501H74.7959V53.1544C74.7959 53.8151 75.3376 54.3579 76.0076 54.3579H77.1624C77.8324 54.3579 78.3741 53.8151 78.3741 53.1544V44.6501H78.4739C83.4397 50.7334 90.0117 53.6641 90.0117 53.6641C91.1854 54.5703 91.6653 53.6122 91.6653 53.6122L92.4684 52.3427C93.2763 51.1204 92.0978 50.6909 92.0978 50.6909C86.7566 48.0244 84.3616 45.7969 83.3732 44.6501H89.1421C90.4821 44.6501 91.5656 43.5693 91.5656 42.2432V32.7335C91.5656 31.4074 90.4821 30.3314 89.1421 30.3314H78.3741V27.6224H92.6538C93.3238 27.6224 93.8655 27.0844 93.8655 26.419V25.2722C93.8655 24.6067 93.3238 24.0687 92.6538 24.0687M74.7959 35.6879H65.6056V33.8851H74.7959V35.6879ZM65.6103 39.2463H74.8006V40.9925H65.6103V39.2463ZM78.3741 39.2463H88.0919V40.9925H78.3741V39.2463ZM88.0919 35.6879H78.3694V33.8851H88.0919V35.6879Z" fill="black"/>
<path d="M108.088 21.1569H106.881C106.206 21.1569 105.669 21.6949 105.669 22.3603V28.7457H97.7383C97.0778 28.7457 96.5314 29.2837 96.5314 29.9491V31.1526C96.5314 31.818 97.0778 32.356 97.7383 32.356H105.669V46.014L96.4933 49.6244C95.8708 49.8698 95.5667 50.5682 95.8138 51.1865L96.2605 52.305C96.5076 52.9232 97.2156 53.2253 97.8334 52.9799L105.669 49.8934V53.1734C105.669 53.8341 106.206 54.3768 106.881 54.3768H108.088C108.758 54.3768 109.3 53.8341 109.3 53.1734V22.3556C109.3 21.6902 108.753 21.1522 108.088 21.1522" fill="black"/>
<path d="M127.01 48.4162L125.87 48.0056C125.243 47.779 124.549 48.1 124.316 48.7276L123.703 50.1293C123.494 50.5588 123.442 50.5918 123.347 50.672H119.179C117.948 50.672 117.312 50.1812 117.288 49.2137C117.288 49.2137 117.278 39.9684 117.274 32.3418C117.302 32.3418 117.321 32.3418 117.35 32.3418H126.255C126.925 32.3418 127.467 31.8038 127.467 31.1384V29.9349C127.467 29.2695 126.925 28.7315 126.255 28.7315H117.35C117.326 28.7315 117.297 28.7362 117.274 28.7409C117.274 25.0787 117.264 22.398 117.264 22.398C117.264 21.7326 116.732 21.1946 116.057 21.1899H114.798C114.128 21.1804 113.581 21.7232 113.581 22.3839L113.596 49.3695C113.705 49.3884 113.71 51.2761 115.145 52.7155C115.824 53.4046 117.079 54.2257 119.184 54.2257H123.399C125.114 53.9803 125.851 54.0511 127.11 51.4035L127.733 49.9547C127.956 49.327 127.633 48.638 127.01 48.4067" fill="black"/>
<path d="M134.618 33.6916V31.3413L138.734 31.3508V33.5311C138.734 34.1966 139.275 34.7346 139.945 34.7346H141.157C141.827 34.7346 142.364 34.1966 142.364 33.5311V31.3555H145.358V33.7246C145.358 34.3853 145.899 34.9234 146.57 34.9234H147.777C148.447 34.9234 148.993 34.3853 148.993 33.7246V31.3649L152.462 31.3744V33.5264C152.462 34.1918 153.004 34.7299 153.674 34.7299H154.885C155.555 34.7299 156.097 34.1918 156.097 33.5264V31.3791H158.982L159.039 33.6822C159.039 34.3476 159.585 34.8856 160.25 34.8856H161.462C162.132 34.8856 162.679 34.3476 162.679 33.6822V30.2889C162.679 28.958 161.59 27.882 160.255 27.882L149.007 27.8962V24.8049H160.455C161.125 24.8049 161.666 24.2669 161.666 23.6015V22.3508C161.666 21.6854 161.125 21.1474 160.455 21.1474H133.825C133.155 21.1474 132.613 21.6854 132.613 22.3508V23.6015C132.613 24.2669 133.155 24.8049 133.825 24.8049H145.377V27.9056L133.43 27.9198C132.09 27.9198 131.007 28.9958 131.007 30.3267V33.6869C131.007 34.3523 131.549 34.8903 132.219 34.8903H133.43C134.096 34.8903 134.637 34.3523 134.637 33.6869" fill="black"/>
<path d="M163.197 49.8273L162.108 49.3082C161.505 49.0155 160.783 49.2704 160.488 49.865L160.037 50.7193C159.965 50.842 159.675 50.8844 159.585 50.8844H149.278C149.136 50.6154 149.026 49.8981 149.06 49.3506V49.2893V49.2185H159.001C160.336 49.2185 161.419 48.1472 161.419 46.8163V38.3119C161.419 36.9811 160.336 35.905 159.001 35.905H135.64C134.3 35.905 133.221 36.9811 133.221 38.3119V46.8163C133.221 48.1472 134.305 49.2185 135.64 49.2185H145.472C145.434 49.8792 145.424 52.0265 146.688 53.381C147.339 54.0795 148.199 54.4476 149.193 54.4476H159.557C159.737 54.457 161.999 54.4853 163.144 52.489L163.753 51.446C164.042 50.8467 163.8 50.1246 163.192 49.832M149.069 44.1734H157.903V45.712H149.069V44.1734ZM157.903 41.0492H149.069V39.4587H157.903V41.0492ZM145.486 41.0492H136.757V39.4587H145.486V41.0492ZM136.757 44.1734H145.486V45.712H136.757V44.1734Z" fill="black"/>
<path d="M196.356 28.3162C195.301 27.5752 194.17 27.646 193.581 27.7499H185.236C185.545 25.6025 185.602 24.2103 185.64 24.0498C185.726 23.7148 185.659 22.4452 185.659 22.4452C185.659 21.7798 185.117 21.2418 184.452 21.2418L182.989 21.204C182.318 21.204 181.782 21.7421 181.782 22.4028C181.782 22.4028 181.929 23.2617 181.801 23.913C181.801 23.9602 181.744 25.4421 181.368 27.7546L169.821 27.764C169.151 27.7735 168.619 28.3162 168.623 28.9816L168.638 30.3786C168.647 31.044 169.198 31.5726 169.868 31.5679H180.589C179.629 35.4283 177.913 40.2044 174.858 44.5934C174.796 44.6878 173.185 47.2033 170.058 49.7895L168.875 50.6768C168.4 51.1393 168.395 51.9038 168.866 52.371L169.778 53.4848C170.249 53.952 171.014 53.9615 171.489 53.4942L172.415 52.7863C176.013 49.8084 178.037 46.8257 178.113 46.7077C181.72 41.54 183.568 35.9192 184.538 31.5726H194.065L194.108 31.5631C194.127 31.6339 194.137 31.7283 194.141 31.8558L194.07 46.1367V46.2358C194.127 47.4628 194.065 48.7984 193.928 49.7706C193.676 49.4308 193.386 48.9825 193.025 48.369C192.787 48.4162 191.913 47.0003 191.913 47.0003C191.542 46.4482 190.796 46.2971 190.235 46.6605L189.223 47.326C188.667 47.6894 188.515 48.4445 188.886 48.9919L189.694 50.285C191.11 52.7014 192.863 55.0847 195.187 54.4051C197.216 53.8104 198.133 51.026 197.91 46.1225L197.986 31.7944V31.6859C197.886 29.7745 197.045 28.8023 196.356 28.3162Z" fill="black"/>
<path d="M68.3 2.96827C67.9388 2.96827 67.668 3.11458 67.4921 3.40246C66.9361 3.74226 66.3849 3.99239 65.848 4.14341C65.7006 2.98243 65.3157 2.17069 64.7122 1.72707C64.1895 1.33536 63.5005 1.21737 62.6451 1.32592C62.4455 1.35896 62.303 1.43447 62.2222 1.54773C62.1462 1.65628 62.1272 1.78842 62.1604 1.94888C62.1984 2.11878 62.322 2.32643 62.6689 2.36891C63.8094 2.51993 64.3891 3.93575 64.3891 6.5739C64.3891 7.07888 64.3748 7.64521 64.3463 8.24929C64.2798 9.21205 64.199 10.0049 64.104 10.6043C62.9825 10.3825 62.0559 10.4533 61.3906 10.8119C60.5543 11.2367 60.1266 11.7653 60.1266 12.3788C60.1266 12.9545 60.464 13.4123 61.1245 13.738C61.5997 13.9645 62.1319 14.0825 62.7021 14.0825C62.7877 14.0825 62.8732 14.0825 62.9588 14.073C64.0992 14.0117 64.8643 13.4501 65.2397 12.4165C65.9097 12.6997 66.594 13.0395 67.2688 13.4312C67.4256 13.7049 67.6917 13.8465 68.0529 13.8465C68.3047 13.8465 68.5233 13.771 68.7039 13.6153C68.8845 13.4595 68.9795 13.2707 68.9795 13.0584C68.9795 12.8318 68.8892 12.6431 68.7276 12.5204L68.6374 12.426C68.6374 12.426 68.6183 12.4071 68.6088 12.4024C67.6347 11.8408 66.613 11.3688 65.5723 11.0054C65.8622 9.08935 65.9858 7.17327 65.9382 5.3091C66.9409 5.26191 67.9056 4.97874 68.8084 4.46433C69.103 4.30387 69.2504 4.0679 69.2504 3.77057C69.2504 3.54404 69.1553 3.35055 68.9605 3.19481C68.7752 3.04378 68.5518 2.96827 68.3 2.96827ZM62.8732 12.7091C62.6024 12.7422 62.303 12.6997 61.9894 12.5864C61.69 12.4779 61.4999 12.3505 61.4476 12.2278C61.4286 12.1758 61.5189 12.0437 61.9751 11.8549C62.1652 11.7747 62.3885 11.7322 62.6499 11.7322C62.9873 11.7322 63.3817 11.7888 63.8284 11.9021C63.643 12.3835 63.3294 12.6478 62.8732 12.7139" fill="black"/>
<path d="M120.134 3.0721C120.353 3.16649 120.334 3.23256 121.622 3.23256C122.558 3.23256 123.138 3.19952 124.007 3.14289L124.083 3.12873C124.763 3.02491 124.867 2.59072 124.867 2.34531C124.867 1.8309 124.53 1.53829 123.936 1.53829C123.817 1.53829 123.708 1.55717 123.603 1.59492C123.076 1.61852 122.601 1.62796 122.201 1.62796C120.985 1.62796 121.028 1.58549 120.928 1.56189C120.591 1.47694 120.272 1.21737 119.982 0.797344C119.773 0.495302 119.445 0.419792 119.094 0.59441C118.823 0.726553 118.709 0.948365 118.78 1.19377C119.032 2.2698 119.754 2.91164 120.134 3.0721Z" fill="black"/>
<path d="M124.929 5.56866C123.96 4.86075 122.411 4.73804 120.206 5.19583C119.645 5.31381 119.341 5.37988 118.752 5.56394C118.419 5.66305 118.143 5.75744 117.972 5.64889C117.701 5.48371 117.72 5.19111 117.711 4.99289C117.692 4.5823 117.017 4.39353 116.751 4.85131C116.651 5.02121 116.585 5.20527 116.551 5.46955C116.518 5.73384 116.537 5.99813 116.589 6.23882C116.632 6.41815 116.694 6.57861 116.784 6.72492C117.193 7.33844 117.929 7.48002 118.913 7.2063L119.122 7.14494C120.054 6.87594 120.757 6.69188 121.208 6.59749C122.753 6.27657 123.404 6.46063 123.684 6.66828C123.841 6.78627 123.945 6.95617 124.002 7.18742C124.093 7.57441 124.05 8.10298 123.874 8.75426C123.656 9.60847 122.957 10.6231 121.793 11.7605C121.189 12.3457 120.605 12.846 120.049 13.2471C119.882 13.3651 119.797 13.502 119.783 13.653C119.768 13.7946 119.83 13.9362 119.963 14.0683C120.134 14.2429 120.348 14.309 120.567 14.2618C120.633 14.2477 120.705 14.2241 120.771 14.1863C121.508 13.8135 122.268 13.3132 123.038 12.6902C124.535 11.4726 125.452 10.1984 125.77 8.90528C125.956 8.1549 125.984 7.4989 125.856 6.95145C125.723 6.37096 125.414 5.90374 124.939 5.55922" fill="black"/>
<path d="M151.169 7.47527C150.651 7.26762 150.067 7.16379 149.435 7.16379C148.104 7.16379 146.883 7.58854 145.643 8.66928C145.914 7.96137 146.085 7.36672 146.337 6.65881C146.698 5.64886 146.912 5.06365 147.054 4.57755C147.995 4.48789 149.017 4.26607 149.934 3.9074C150.267 3.72334 150.433 3.49681 150.438 3.23724C150.447 2.7417 150.133 2.45382 149.582 2.44438C149.449 2.44438 149.321 2.46798 149.197 2.51517C148.432 2.77002 148.176 3.06262 147.506 3.20893C147.662 2.73698 147.8 1.9866 148.209 1.76007C148.494 1.59961 148.333 1.23149 148.133 1.08047C147.834 0.85394 147.596 0.802026 147.263 0.839782C146.85 0.886976 146.617 1.08519 146.47 1.40139C146.294 1.66096 146.094 2.25089 145.866 3.19949C145.305 3.14757 144.835 2.99655 144.479 2.74642C144.189 2.53877 143.88 2.56709 143.638 2.81249C143.462 2.99183 143.443 3.22308 143.585 3.44018C143.989 4.06314 144.669 4.44541 145.61 4.57755C145.272 5.74797 145.12 6.12552 144.469 7.95193C144.103 8.97132 143.809 10.1087 143.965 10.7694C144.037 11.0667 144.156 11.265 144.469 11.3546C144.697 11.416 145.035 11.3688 145.201 11.1706C146.612 9.38663 148.062 8.48051 149.511 8.48051C150.091 8.48051 150.561 8.64097 150.937 8.97132C151.302 9.29224 151.455 9.68396 151.407 10.1701C151.331 10.8308 150.87 11.4443 150.034 11.9917C148.993 12.6713 147.501 13.1574 145.605 13.4312C145.41 13.4548 145.263 13.5303 145.177 13.6435C145.092 13.7521 145.068 13.8889 145.096 14.0541C145.153 14.3373 145.372 14.4978 145.7 14.4978C145.714 14.4978 145.733 14.4978 145.747 14.4978C145.747 14.4978 145.747 14.4978 145.752 14.4978C147.558 14.3703 149.136 14.0258 150.447 13.4831C152.31 12.7044 153.256 11.6095 153.256 10.2314C153.256 9.65092 153.061 9.10819 152.676 8.61265C152.296 8.12655 151.787 7.74428 151.165 7.48471" fill="black"/>
<path d="M170.082 5.37046C169.764 5.22415 169.469 5.29495 169.27 5.56867C169.108 5.82824 169.165 6.08781 169.426 6.26242C171.688 7.84343 172.164 8.68348 172.164 9.11295C172.164 9.49522 171.479 9.75007 170.234 9.83502C169.883 9.86805 169.683 10.0663 169.683 10.3778C169.683 10.7081 169.906 10.9016 170.272 10.9016C172.791 10.9016 174.069 10.2881 174.069 9.07991C174.069 7.87174 172.767 6.69189 170.077 5.37518" fill="black"/>
<path d="M165.758 4.78049C165.459 4.8088 165.207 4.83712 164.993 4.856C165.159 4.27551 165.24 3.76581 165.24 3.33163C165.24 2.89744 165.15 2.52933 164.969 2.24616C164.66 1.74591 164.128 1.49106 163.391 1.49106C163.111 1.4769 162.897 1.60432 162.826 1.83557C162.755 1.98659 162.755 2.12346 162.812 2.24616C162.878 2.37359 163.007 2.46797 163.192 2.51517C163.306 2.55292 163.653 2.66147 163.653 3.43545C163.653 3.84604 163.553 4.3699 163.363 4.99758C162.46 5.05893 161.747 5.09197 161.239 5.09197C160.051 5.09197 159.823 4.85128 159.77 4.73329C159.618 4.43597 159.333 4.33214 158.991 4.44541C158.787 4.5162 158.658 4.62003 158.601 4.75689C158.549 4.88431 158.568 5.02589 158.658 5.17692C158.972 5.70077 159.257 6.04529 159.523 6.22462C159.88 6.46531 160.374 6.58802 160.996 6.58802C161.419 6.58802 162.018 6.53611 162.774 6.43228C161.861 8.40027 160.569 10.3824 158.929 12.3221C158.768 12.4731 158.687 12.6619 158.687 12.879C158.687 13.3651 159.005 13.6483 159.561 13.6483C159.904 13.6483 160.17 13.5067 160.317 13.2518C160.683 12.7563 161.068 12.2041 161.467 11.6048C162.227 12.5675 163.068 13.0583 163.976 13.0583C164.974 13.0583 165.834 12.5534 166.528 11.5528C167.093 10.7458 167.431 9.87273 167.53 8.95716C167.611 8.31532 167.654 7.75843 167.654 7.29121C167.654 6.20575 167.435 5.49312 166.979 5.10141C166.666 4.8324 166.252 4.72385 165.748 4.77577M166.038 8.68344C165.948 9.29696 165.706 9.90104 165.321 10.4721C164.86 11.1564 164.356 11.4868 163.781 11.4868C163.258 11.4868 162.721 11.1564 162.175 10.5098C163.216 8.86749 164 7.40448 164.518 6.14911L165.653 5.94618C165.653 5.94618 165.672 5.94618 165.706 5.96978C165.9 6.12552 166.133 6.52667 166.133 7.58381C166.133 7.91889 166.1 8.28701 166.034 8.67872" fill="black"/>
<path d="M183.354 3.17116C183.012 3.28915 182.97 3.29387 182.703 3.40713C182.323 3.50624 182.409 3.84132 182.794 3.90739C183.193 3.97818 183.568 3.97818 184.314 3.94514C185.046 3.91211 185.327 3.81772 185.507 3.72805C185.94 3.4968 186.158 3.2042 186.158 2.85496C186.158 2.60011 186.03 2.34054 185.778 2.06682C185.193 1.48633 184.362 1.03327 183.312 0.731226C182.951 0.61796 182.665 0.740665 182.523 1.08046C182.442 1.32587 182.528 1.54296 182.77 1.6987C183.963 2.43965 184.21 2.73226 184.262 2.80777C184.224 2.83136 184.153 2.86912 184.015 2.93047C183.868 2.9871 183.649 3.06733 183.359 3.16644" fill="black"/>
<path d="M187.664 8.3106C187.018 7.59325 186.172 7.22986 185.146 7.22986C184.015 7.22986 182.513 7.73955 180.674 8.74951L181.121 6.43228C181.264 5.33266 181.705 5.05421 181.43 4.42653C181.34 4.22831 181.197 3.94987 180.712 3.96875C180.228 3.98762 179.805 4.86543 179.672 5.51671C178.892 9.4527 179.078 10.0709 179.467 10.4438C179.596 10.6231 179.881 10.7081 180.009 10.7081C180.137 10.7081 180.37 10.6467 181.04 10.1889C182.77 9.00908 184.081 8.40971 184.932 8.40971C185.688 8.40971 186.301 8.86277 186.614 9.40079C186.785 9.67923 186.871 9.9388 186.871 10.1795C186.871 10.4391 186.785 10.6845 186.605 10.9252C186.12 11.5812 185.388 11.9776 183.83 12.5109C182.893 12.8318 182.319 13.0253 181.054 13.0961C180.674 13.1197 180.441 13.299 180.441 13.6247C180.432 13.7851 180.475 13.9173 180.57 14.0164C180.674 14.1249 180.831 14.1863 181.045 14.1957C181.188 14.1957 181.33 14.2004 181.473 14.2004C182.642 14.2004 183.763 13.9456 184.923 13.5491C186.348 13.063 187.061 12.6005 187.783 11.9068C188.292 11.416 188.567 10.6467 188.515 10.0993C188.458 9.52821 188.154 8.87693 187.669 8.31532" fill="black"/>
<path d="M79.1819 6.43228C79.2627 6.09248 79.3483 5.51671 79.0109 5.44592C78.6925 5.37985 78.5689 5.72909 78.3741 6.05472C78.146 6.437 78.0177 6.69656 77.8989 6.90422C77.8466 6.49363 77.8276 6.10192 77.8324 5.65357C77.8466 4.67194 77.9797 4.03954 78.1983 3.41657C78.5309 2.48213 78.5784 2.09986 78.5214 1.7931C78.4216 1.23621 77.8799 0.929446 76.9057 0.877532C76.4353 0.863374 76.2547 1.06631 76.1882 1.24565C76.1264 1.41083 76.1977 1.54769 76.3878 1.64208C76.6301 1.76006 76.7632 1.9158 76.8012 2.12818C76.844 2.36415 76.7442 2.85025 76.5018 3.57231C76.0409 4.87959 75.8793 5.96034 76.0266 6.78623C76.1692 7.58381 76.5161 8.30588 77.0626 8.93356C77.0721 8.943 77.1528 9.00907 77.1671 9.01851C77.419 9.16481 77.6138 9.13178 77.7849 9.07515C77.9037 9.04211 77.9892 8.99964 78.0557 8.95716C78.645 8.61264 78.8493 7.83866 79.1819 6.43228Z" fill="black"/>
<path d="M82.323 3.33634C82.2945 3.3033 82.266 3.28443 82.2374 3.27499C81.805 2.94935 81.2395 2.93991 80.8736 3.04846C80.484 3.16172 79.8852 3.75165 80.2131 4.14336C80.465 4.44068 80.9449 4.04897 81.1778 4.67665C81.5437 5.63469 81.8906 6.82398 81.8478 7.35728C81.9191 7.72539 81.8953 8.20677 81.7622 8.7967C81.5817 9.66035 80.9259 10.6986 79.8139 11.8832C79.239 12.492 78.6735 13.0158 78.1365 13.4359C77.9797 13.5633 77.8941 13.7002 77.8894 13.8512C77.8846 13.9928 77.9512 14.1343 78.0842 14.2618C78.2648 14.427 78.4786 14.4883 78.6972 14.4317C78.7638 14.4175 78.8303 14.3892 78.8968 14.3514C79.6144 13.9503 80.3557 13.4217 81.097 12.7704C82.5368 11.4962 83.4017 10.1889 83.663 8.88636C83.8151 8.13126 83.7723 7.47998 83.663 6.92781C83.2924 5.06364 82.7649 3.85547 82.3182 3.34578" fill="black"/>
<path d="M110.098 6.97029C109.975 6.96085 109.856 6.96085 109.761 6.97972C109.324 7.01748 108.454 7.13547 107.185 7.32896C104.961 7.65932 103.726 7.81034 102.623 7.92361C102.49 7.93776 102.281 7.95192 102.281 7.95192C102.281 7.95192 103.246 7.30536 104.957 5.72908C106.663 4.1528 108.045 2.8644 108.121 2.19424C108.159 1.84501 108.074 1.24092 107.057 1.14181C106.705 1.10878 104.681 1.52409 103.807 1.70814C103.222 1.84501 103.046 1.84973 103.008 1.84973C103.008 1.84973 102.994 1.84029 102.97 1.78837C102.813 1.47689 102.514 1.35891 102.148 1.46745C101.963 1.51937 101.83 1.60904 101.763 1.73646C101.701 1.85445 101.697 1.99131 101.754 2.13761C102.01 2.8408 102.391 3.21836 102.88 3.26555C103.099 3.28443 103.388 3.22307 103.769 3.07205C104.035 2.96823 105.717 2.55292 105.959 2.5246C105.703 2.8408 104.786 3.91683 103.517 5.09196C102.918 5.64413 102.476 6.05944 101.982 6.5361C100.447 8.01328 99.815 8.26812 99.8055 8.56545C99.796 8.84861 99.853 9.32999 100.737 9.41494C100.86 9.42438 104.367 8.9194 105.484 8.7731C105.332 8.9194 105.189 9.09402 105.052 9.31111C104.529 10.1464 104.434 11.1139 104.833 12.138C105.213 13.1102 105.812 13.7426 106.838 14.3514C107.228 14.578 107.765 14.8139 108.083 14.9178C108.787 15.1962 109.224 14.8139 109.366 14.5449C109.514 14.2665 109.533 13.7568 108.734 13.3887C108.668 13.3556 108.592 13.332 108.525 13.3132C107.784 13.0253 106.891 12.5486 106.458 11.7605C106.05 11.0101 106.145 10.2267 106.577 9.56596C106.914 9.04683 107.613 8.70703 108.345 8.6504C108.468 8.64096 108.597 8.63152 108.739 8.61736L110.074 8.51825C110.759 8.44746 110.906 8.05575 110.93 7.82922C110.982 7.35256 110.678 7.0458 110.089 6.98916" fill="black"/>
<path d="M197.202 10.524C196.679 10.0427 196.052 9.79724 195.329 9.79724C194.607 9.79724 193.98 10.0427 193.467 10.524C192.944 11.0148 192.683 11.6142 192.683 12.3032C192.683 12.9923 192.949 13.5964 193.467 14.0825C193.98 14.5638 194.607 14.8093 195.329 14.8093C196.052 14.8093 196.679 14.5638 197.202 14.0825C197.729 13.5916 198 12.9923 198 12.2985C198 11.6048 197.734 11.0054 197.202 10.5193M196.465 13.3368C196.151 13.6294 195.781 13.7757 195.334 13.7757C194.887 13.7757 194.536 13.6341 194.222 13.3368C193.918 13.0489 193.766 12.7138 193.766 12.3032C193.766 11.8927 193.913 11.5765 194.222 11.2886C194.536 10.996 194.897 10.8497 195.334 10.8497C195.771 10.8497 196.151 10.9913 196.465 11.2886C196.774 11.5765 196.921 11.9068 196.921 12.3032C196.921 12.6997 196.774 13.0489 196.465 13.3368Z" fill="black"/>
<path d="M135.583 13.7427L135.521 13.5728C135.141 12.6667 134.362 11.8927 133.207 11.2697C132.627 10.9629 132.043 10.7317 131.468 10.5854C131.168 10.5099 130.945 10.6279 130.86 10.8922C130.788 11.0904 130.855 11.2791 131.031 11.3971C132.033 12.1475 132.851 13.0064 133.464 13.955C133.43 14.4931 133.734 14.8376 134.319 14.9367C134.404 14.9556 134.49 14.965 134.576 14.965C134.818 14.965 135.046 14.8848 135.25 14.7243C135.526 14.5072 135.654 14.2241 135.621 13.8984C135.621 13.8937 135.621 13.889 135.621 13.8843L135.592 13.7427H135.583Z" fill="black"/>
<path d="M93.11 13.7427L93.0482 13.5728C92.668 12.6667 91.8887 11.8927 90.734 11.2697C90.1542 10.9629 89.5697 10.7317 88.9948 10.5854C88.6954 10.5099 88.472 10.6279 88.3865 10.8922C88.3152 11.0904 88.3818 11.2791 88.5576 11.3971C89.5602 12.1475 90.3776 13.0064 90.9906 13.955C90.9573 14.4931 91.2614 14.8376 91.8459 14.9367C91.9315 14.9556 92.017 14.965 92.1025 14.965C92.3449 14.965 92.573 14.8848 92.7773 14.7243C93.0529 14.5072 93.1812 14.2241 93.148 13.8984C93.148 13.8937 93.148 13.889 93.148 13.8843L93.1195 13.7427H93.11Z" fill="black"/>
</g>
<defs>
<clipPath id="clip0_651_160">
<rect width="198" height="55" fill="white" transform="translate(0 0.5)"/>
</clipPath>
</defs>
</svg>
